<?xml version="1.0" encoding="utf-8"?>
<!-- Generator: Adobe Illustrator 21.1.0, SVG Export Plug-In . SVG Version: 6.00 Build 0)  -->
<!DOCTYPE svg PUBLIC "-//W3C//DTD SVG 1.1//EN" "http://www.w3.org/Graphics/SVG/1.1/DTD/svg11.dtd">
<svg version="1.1" id="Layer_1" xmlns="http://www.w3.org/2000/svg" xmlns:xlink="http://www.w3.org/1999/xlink" x="0px" y="0px"
	 viewBox="0 0 259.3 76.5" style="enable-background:new 0 0 259.3 76.5;" xml:space="preserve">
<style type="text/css">
	.st0{fill:#96D1D1;}
	.st1{clip-path:url(#SVGID_2_);}
	.st2{clip-path:url(#SVGID_4_);}
	.st3{filter:url(#Adobe_OpacityMaskFilter);}
	.st4{clip-path:url(#SVGID_6_);}
	.st5{enable-background:new    ;}
	.st6{clip-path:url(#SVGID_9_);}
	.st7{clip-path:url(#SVGID_11_);fill:url(#SVGID_12_);}
	.st8{clip-path:url(#SVGID_6_);mask:url(#SVGID_7_);}
	.st9{clip-path:url(#SVGID_14_);fill:#7DB948;}
	.st10{fill:#6F6F6F;}
</style>
<g>
	<path class="st0" d="M16.5,41.8c0,0,0-0.1,0.1-0.1c1.5-3,3.4-5.7,5.5-8.3c1-1.2,2-2.5,3-3.7c1-1.2,1.8-2.4,2.6-3.8
		c1.2-2,2-4.2,2.4-6.5c0.2-0.8,0.3-1.7,0.3-2.5c0.1-1,0.1-2,0.1-3c0-0.6,0-1.1-0.1-1.7c-0.1-0.8-0.2-1.6-0.3-2.4c0,0,0-0.1,0-0.1
		c0.1,0.2,0.1,0.4,0.2,0.7c0.3,1.2,0.4,2.4,0.6,3.6c0.1,0.9,0.2,1.8,0.2,2.8c0,0.8,0,1.6,0,2.4c-0.1,3.2-0.6,6.3-1.7,9.4
		c-0.7,2.1-1.8,4-3,5.8c-1.5,2.1-3,4.2-4.8,6.2c-0.8,0.9-1.6,1.7-2.4,2.6c-0.9,1-1.9,1.9-2.8,3c-0.8,1-1.6,2-2.1,3.2
		c-0.4,0.9-0.7,1.9-0.8,2.9c-0.1,0.5-0.1,1.1-0.2,1.6c0,0,0,0,0,0.1c0-0.2-0.1-0.3-0.1-0.5c-0.1-1,0-1.9,0.1-2.9c0.1-1,0.4-2,0.7-3"
		/>
	<path class="st0" d="M27.9,29.8"/>
	<path class="st0" d="M23.3,25.2c0-0.1,0-0.2,0-0.3c0-0.3-0.1-0.5-0.2-0.7c-0.3-0.3-0.6-0.4-0.9-0.1c-0.2,0.2-0.2,0.4-0.3,0.6
		c-0.1,0.4-0.1,0.8-0.1,1.2c0,0.5,0.1,1,0.1,1.5c0,0,0-0.1-0.1-0.1c-0.4-0.9-0.7-1.8-0.9-2.7c-0.2-1-0.1-2,0.3-3
		c0.2-0.5,0.4-0.9,0.8-1.2c0.3-0.2,0.6-0.4,0.9-0.4c0.4,0,0.7,0.1,1,0.5c0.2,0.3,0.3,0.6,0.3,0.9c0.1,0.7,0.1,1.4-0.1,2.1
		c-0.2,0.6-0.4,1.2-0.7,1.7C23.4,25.1,23.3,25.2,23.3,25.2C23.3,25.2,23.3,25.2,23.3,25.2z"/>
</g>
<g>
	<g>
		<defs>
			<rect id="SVGID_1_" x="-16.9" y="-1.3" width="59.2" height="76.7"/>
		</defs>
		<clipPath id="SVGID_2_">
			<use xlink:href="#SVGID_1_"  style="overflow:visible;"/>
		</clipPath>
		<g class="st1">
			<defs>
				<rect id="SVGID_3_" x="-16.9" y="-1.3" width="59.2" height="76.7"/>
			</defs>
			<clipPath id="SVGID_4_">
				<use xlink:href="#SVGID_3_"  style="overflow:visible;"/>
			</clipPath>
			<g class="st2">
				<defs>
					<rect id="SVGID_5_" x="-16.9" y="-1.3" width="59.2" height="76.7"/>
				</defs>
				<clipPath id="SVGID_6_">
					<use xlink:href="#SVGID_5_"  style="overflow:visible;"/>
				</clipPath>
				<defs>
					<filter id="Adobe_OpacityMaskFilter" filterUnits="userSpaceOnUse" x="4.8" y="1.6" width="15.1" height="72.7">
						
							<feColorMatrix  type="matrix" values="-1 0 0 0 1  0 -1 0 0 1  0 0 -1 0 1  0 0 0 1 0" color-interpolation-filters="sRGB" result="source"/>
					</filter>
				</defs>
				<mask maskUnits="userSpaceOnUse" x="4.8" y="1.6" width="15.1" height="72.7" id="SVGID_7_">
					<g class="st3">
						<g>
							<defs>
								<rect id="SVGID_8_" x="4.8" y="1.6" width="15.1" height="72.7"/>
							</defs>
							<clipPath id="SVGID_9_" class="st4">
								<use xlink:href="#SVGID_8_"  style="overflow:visible;"/>
							</clipPath>
							<g class="st5">
								<g>
									<defs>
										<path id="SVGID_10_" d="M12.1,27.2c1.1-6.7,1-10.5-0.7-16.4C19.2,29.3,13,49.3,13,49.3C26.8,17.8,7,1.6,7,1.6
											C13.7,15,6.9,18.8,4.9,41.4c-1.7,19.6,15,32.8,15,32.8C2.1,55.3,9.3,43.8,12.1,27.2"/>
									</defs>
									<clipPath id="SVGID_11_" class="st6">
										<use xlink:href="#SVGID_10_"  style="overflow:visible;"/>
									</clipPath>
									
										<linearGradient id="SVGID_12_" gradientUnits="userSpaceOnUse" x1="-289.5266" y1="451.6581" x2="-289.4298" y2="451.6581" gradientTransform="matrix(1039.2928 -1033.7787 -1033.7787 -1039.2928 767742.4375 170225.4844)">
										<stop  offset="0" style="stop-color:#FFFFFF"/>
										<stop  offset="5.618000e-03" style="stop-color:#FFFFFF"/>
										<stop  offset="1" style="stop-color:#000000"/>
									</linearGradient>
									<polygon class="st7" points="-34.3,37.7 14.5,-10.8 63.2,38.1 14.4,86.6 									"/>
								</g>
							</g>
						</g>
					</g>
				</mask>
				<g class="st8">
					<g>
						<defs>
							<rect id="SVGID_13_" x="4.8" y="1.6" width="15.1" height="72.7"/>
						</defs>
						<clipPath id="SVGID_14_">
							<use xlink:href="#SVGID_13_"  style="overflow:visible;"/>
						</clipPath>
						<path class="st9" d="M12.1,27.2c1.1-6.7,1-10.5-0.7-16.4C19.2,29.3,13,49.3,13,49.3C26.8,17.8,7,1.6,7,1.6
							C13.7,15,6.9,18.8,4.9,41.4c-1.7,19.6,15,32.8,15,32.8C2.1,55.3,9.3,43.8,12.1,27.2"/>
					</g>
				</g>
			</g>
		</g>
	</g>
</g>
<g>
	<path class="st10" d="M35.1,24.4h8.1c4.9,0,7.2,3.4,7.2,7.1c0,3.9-2.3,7.2-7.2,7.2h-3.4v4.2h-4.7V24.4z M39.8,28.7v5.7H43
		c2,0,2.7-1.2,2.7-2.9c0-1.5-0.7-2.8-2.7-2.8H39.8z"/>
	<path class="st10" d="M53.9,24.4H68V29h-9.4v2.7h7.8V36h-7.8v2.4H68v4.6H53.9V24.4z"/>
	<path class="st10" d="M80.9,24.4c4.7,0,6.9,3.1,6.9,6.7c0,2.6-1.2,5-3.6,6.1l4,5.6h-5.7L79,38h-2.4v4.9h-4.7V24.4H80.9z M76.6,28.7
		v4.9h4c1.9,0,2.6-1.2,2.6-2.4c0-1.4-0.7-2.5-2.6-2.5H76.6z"/>
	<path class="st10" d="M95.5,37.4v0.1c0,0.7,1,1.7,3.1,1.7c1.8,0,2.3-0.6,2.3-1.1c0-0.8-0.9-1.3-3.1-2c-2.9-1-6.8-2.4-6.8-6.2
		c0-3.5,3-5.7,7.2-5.7c4.3,0,7.5,2.3,7.5,6v0.3h-4.6v-0.2c0-0.9-0.9-2-2.8-2c-1.6,0-2.2,0.6-2.2,1.3c0,0.7,0.9,1.1,3.1,1.9
		c2.6,0.9,6.9,2.4,6.9,6.5c0,3.6-3.1,5.5-7.3,5.5c-4.4,0-7.8-2.1-7.8-5.7v-0.2H95.5z"/>
	<path class="st10" d="M118.7,24.1c5.4,0,9.8,4.3,9.8,9.6c0,5.3-4.4,9.6-9.8,9.6c-5.3,0-9.8-4.3-9.8-9.6
		C108.9,28.4,113.3,24.1,118.7,24.1z M118.7,38.7c2.8,0,5-2.2,5-5c0-2.8-2.2-5-5-5c-2.8,0-5,2.2-5,5
		C113.6,36.5,115.9,38.7,118.7,38.7z"/>
	<path class="st10" d="M132,42.9V24.4h4l8.2,10.3V24.4h4.7v18.5h-4l-8.2-10.3v10.3H132z"/>
	<path class="st10" d="M164.1,24.4l7.5,18.5h-5.2l-1-2.7h-7.3l-1,2.7H152l7.5-18.5H164.1z M161.8,30.5l-2,5.4h4L161.8,30.5z"/>
	<path class="st10" d="M174.6,24.4h4.7v13.9h8.9v4.6h-13.6V24.4z"/>
	<path class="st10" d="M196.2,24.4v18.5h-4.7V24.4H196.2z"/>
	<path class="st10" d="M200.2,24.4h15.4v3.5l-8.6,10.4h8.6v4.6h-15.7v-3.5l8.6-10.4h-8.3V24.4z"/>
	<path class="st10" d="M219.4,24.4h14.2V29h-9.4v2.7h7.8V36h-7.8v2.4h9.4v4.6h-14.2V24.4z"/>
	<path class="st10" d="M237.5,24.4h8.6c5.8,0,8.7,4.2,8.7,9.2c0,5-3,9.2-8.7,9.2h-8.6V24.4z M242.2,29v9.3h3.5
		c2.8,0,4.3-1.9,4.3-4.7c0-2.8-1.5-4.6-4.3-4.6H242.2z"/>
	<path class="st10" d="M41.7,69.8l-6-18.7h1.5l5.3,16.6L48,51.1h1.4l5.5,16.6l5.3-16.6h1.5l-6,18.7h-1.6l-5.4-16.4l-5.4,16.4H41.7z"
		/>
	<path class="st10" d="M73.9,51.1h12.9v1.4H75.3V60H85v1.3h-9.7v7.1h11.4v1.4H73.9V51.1z"/>
	<path class="st10" d="M101.8,51.1h1.4v17.3h10.8v1.4h-12.2V51.1z"/>
	<path class="st10" d="M128.5,51.1h1.4v17.3h10.8v1.4h-12.2V51.1z"/>
	<path class="st10" d="M153.1,69.8V51.1h1.3l13,16.3V51.1h1.4v18.7h-1.3l-13-16.3v16.3H153.1z"/>
	<path class="st10" d="M185,51.1h12.9v1.4h-11.4V60h9.7v1.3h-9.7v7.1h11.4v1.4H185V51.1z"/>
	<path class="st10" d="M213.6,65.1L213.6,65.1c0,2.2,2.3,3.7,5.9,3.7c3.5,0,5.4-1.5,5.4-3.5c0-2.4-2.6-3.3-5.8-4.3
		c-3-0.9-6.7-2.1-6.7-5.5c0-2.9,2.6-4.9,6.6-4.9c4.1,0,7,2,7,4.8v0.2h-1.4v-0.1c0-2.1-2.1-3.6-5.6-3.6c-3.3,0-5.2,1.5-5.2,3.5
		c0,2.4,2.5,3.2,5.6,4.2c3,0.9,6.9,2.1,6.9,5.6c0,3-2.7,4.9-6.9,4.9c-4.3,0-7.3-2-7.3-4.8v-0.2H213.6z"/>
	<path class="st10" d="M242.5,65.1L242.5,65.1c0,2.2,2.3,3.7,5.9,3.7c3.5,0,5.4-1.5,5.4-3.5c0-2.4-2.6-3.3-5.8-4.3
		c-3-0.9-6.7-2.1-6.7-5.5c0-2.9,2.6-4.9,6.6-4.9c4.1,0,7,2,7,4.8v0.2h-1.4v-0.1c0-2.1-2.1-3.6-5.6-3.6c-3.3,0-5.2,1.5-5.2,3.5
		c0,2.4,2.5,3.2,5.6,4.2c3,0.9,6.9,2.1,6.9,5.6c0,3-2.7,4.9-6.9,4.9c-4.3,0-7.3-2-7.3-4.8v-0.2H242.5z"/>
</g>
</svg>
